<svg version="1.1" xmlns="http://www.w3.org/2000/svg" viewBox="0 0 48 48" class="LgbsSe-Bz112c"><g><path fill="#ea4335" d="M24 9.5c3.54 0 6.71 1.22 9.21 3.6l6.85-6.85C35.9 2.38 30.47 0 24 0 14.62 0 6.51 5.38 2.56 13.22l7.98 6.19C12.43 13.72 17.11 9.5 24 9.5z"></path><path fill="#4285F4" d="M46.98 24.55c0-.83-.07-1.63-.2-2.43H24v4.61h12.48c-.56 2.92-2.31 5.46-4.93 7.21l7.98 6.19c4.69-4.35 7.42-10.8 7.42-18.57z"></path><path fill="#FBBC05" d="M10.53 28.59c-.48-1.45-.76-2.99-.76-4.59s.27-3.14-.76-4.59l-7.98-6.19C.92 17.59 0 20.76 0 24c0 3.24.92 6.41 2.85 9.32l7.68-5.93z"></path><path fill="#34A853" d="M24 48c6.48 0 11.93-2.13 15.89-5.81l-7.98-6.19c-2.19 1.48-5.01 2.36-7.92 2.36-6.88 0-11.56-4.22-13.47-9.77l-7.98 6.19C6.51 42.62 14.62 48 24 48z"></path><path fill="none" d="M0 0h48v48H0z"></path></g></svg> 